<svg xmlns="http://www.w3.org/2000/svg" viewBox="0 0 520 420" fill="none" role="img" aria-label="SEO y GEO · ojo Making Of">
  <defs>
    <radialGradient id="meshBg" cx="50%" cy="45%" r="60%">
      <stop offset="0%" stop-color="#F7F2E4"/>
      <stop offset="100%" stop-color="#D8D3A4" stop-opacity="0"/>
    </radialGradient>
    <radialGradient id="ball" cx="35%" cy="30%" r="70%">
      <stop offset="0%" stop-color="#6BA894"/>
      <stop offset="45%" stop-color="#2A5A49"/>
      <stop offset="100%" stop-color="#091914"/>
    </radialGradient>
    <radialGradient id="iris" cx="40%" cy="35%" r="65%">
      <stop offset="0%" stop-color="#99EADA"/>
      <stop offset="40%" stop-color="#418870"/>
      <stop offset="100%" stop-color="#091914"/>
    </radialGradient>
    <filter id="soft" x="-20%" y="-20%" width="140%" height="140%">
      <feDropShadow dx="0" dy="10" stdDeviation="14" flood-color="#091914" flood-opacity="0.28"/>
    </filter>
  </defs>
  <rect width="520" height="420" fill="url(#meshBg)"/>
  <g fill="#56742A" fill-opacity="0.28">
    <circle cx="260" cy="72" r="3"/><circle cx="195" cy="105" r="2.4"/><circle cx="325" cy="102" r="2.4"/>
    <circle cx="155" cy="200" r="2.2"/><circle cx="365" cy="195" r="2.2"/>
    <circle cx="260" cy="350" r="2.8"/>
  </g>
  <g stroke="#418870" stroke-opacity="0.5" stroke-width="1.55" fill="none">
    <path d="M195 105 C225 155 245 185 260 210"/>
    <path d="M325 102 C295 155 275 185 260 210"/>
    <path d="M155 200 C195 205 230 208 260 210"/>
    <path d="M365 195 C325 205 290 208 260 210"/>
    <path d="M260 210 L260 350"/>
  </g>
  <g filter="url(#soft)">
    <!-- globo ocular -->
    <circle cx="260" cy="210" r="118" fill="url(#ball)"/>
    <circle cx="260" cy="210" r="118" fill="none" stroke="#56742A" stroke-opacity="0.4" stroke-width="2"/>
    <ellipse cx="220" cy="165" rx="42" ry="28" fill="#FBF6EB" fill-opacity="0.1"/>
    <!-- iris -->
    <circle cx="278" cy="205" r="52" fill="url(#iris)"/>
    <circle cx="278" cy="205" r="52" fill="none" stroke="#F7F2E4" stroke-opacity="0.25" stroke-width="1.5"/>
    <circle cx="278" cy="205" r="34" fill="none" stroke="#99EADA" stroke-opacity="0.3" stroke-width="1.3"/>
    <circle cx="278" cy="205" r="18" fill="#091914"/>
    <!-- párpado hint -->
    <path d="M155 175 C200 115 250 100 300 105 C340 110 380 140 395 175" stroke="#133429" stroke-opacity="0.35" stroke-width="3" fill="none"/>
  </g>
  <circle cx="255" cy="180" r="2.6" fill="#F7F2E4" fill-opacity="0.5"/>
  <circle cx="300" cy="175" r="2.4" fill="#99EADA" fill-opacity="0.55"/>
  <circle cx="310" cy="230" r="2.3" fill="#F7F2E4" fill-opacity="0.4"/>
  <circle cx="278" cy="205" r="10" fill="#091914"/>
  <circle cx="278" cy="205" r="5" fill="#99EADA"/>
</svg>
